<svg xmlns="http://www.w3.org/2000/svg" xmlns:xlink="http://www.w3.org/1999/xlink" width="18" height="15" viewBox="0 0 18 15"><defs><clipPath id="a"><rect width="18" height="15" fill="#111"/></clipPath></defs><g clip-path="url(#a)"><path d="M16.157,3.735c.011.163.011.325.011.49,0,5-3.715,10.776-10.507,10.776v0A10.265,10.265,0,0,1,0,13.3a7.327,7.327,0,0,0,.879.055A7.3,7.3,0,0,0,5.465,11.73,3.71,3.71,0,0,1,2.015,9.1a3.592,3.592,0,0,0,1.667-.065A3.765,3.765,0,0,1,.72,5.322V5.274A3.6,3.6,0,0,0,2.4,5.748,3.851,3.851,0,0,1,1.253.691,10.4,10.4,0,0,0,8.864,4.648,3.852,3.852,0,0,1,9.933,1.03a3.632,3.632,0,0,1,5.225.164A7.3,7.3,0,0,0,17.5.274a3.786,3.786,0,0,1-1.623,2.095A7.2,7.2,0,0,0,18,1.773a7.612,7.612,0,0,1-1.843,1.962" transform="translate(0 0)" fill="#111"/></g></svg>