<svg xmlns="http://www.w3.org/2000/svg" xmlns:xlink="http://www.w3.org/1999/xlink" width="20" height="14" viewBox="0 0 20 14"><defs><clipPath id="a"><rect width="20" height="14" transform="translate(0 0)" fill="#111"/></clipPath></defs><g transform="translate(0 0)"><g transform="translate(0 0)" clip-path="url(#a)"><path d="M19.582,2.186A2.5,2.5,0,0,0,17.814.418C16.254,0,10,0,10,0S3.746,0,2.186.418A2.5,2.5,0,0,0,.418,2.186,26.022,26.022,0,0,0,0,7a26.023,26.023,0,0,0,.418,4.814,2.5,2.5,0,0,0,1.768,1.768C3.746,14,10,14,10,14s6.254,0,7.814-.418a2.5,2.5,0,0,0,1.768-1.768A26.023,26.023,0,0,0,20,7a26.022,26.022,0,0,0-.418-4.814M8,10V4l5.2,3Z" transform="translate(0 0)" fill="#111"/></g></g></svg>