<svg xmlns="http://www.w3.org/2000/svg" width="16.855" height="17.792" viewBox="0 0 16.855 17.792"><g transform="translate(26 -36.12)"><path d="M8.428,0C3.773,0,0,3.483,0,7.78a6.8,6.8,0,0,0,3.156,6.07l.008,0v3.724a.214.214,0,0,0,.342.171L6.7,15.38l.069.029a9.13,9.13,0,0,0,1.657.151c4.655,0,8.428-3.484,8.428-7.781S13.082,0,8.428,0M5.6,9.751A1.76,1.76,0,0,0,7.348,8.5H8.57A2.922,2.922,0,0,1,5.6,10.925,3.1,3.1,0,0,1,2.427,7.771,3.1,3.1,0,0,1,5.6,4.618,2.925,2.925,0,0,1,8.579,7.092H7.36A1.737,1.737,0,0,0,5.6,5.774a1.906,1.906,0,0,0-1.983,2A1.954,1.954,0,0,0,5.6,9.751M13.654,10.8h-1.12V8.283a.8.8,0,0,0-.859-.893c-.582,0-.955.355-.955,1.075V10.8H9.6V4.638h1.12V6.957a1.437,1.437,0,0,1,1.293-.606,1.538,1.538,0,0,1,1.172.476,1.8,1.8,0,0,1,.469,1.317Z" transform="translate(-26 36.12)" fill="#fff"/></g></svg>